# xmcd
#
# Track frame offsets: 
#        150
#        16871
#        34568
#        53284
#        68997
#        88058
#        105636
#        122704
#        138308
#        157102
#
# Disc length: 2372 seconds
#
# Revision: 0
# Processed by: cddbd v1.5.2PL0 Copyright (c) Steve Scherf et al.
# Submitted via: ExactAudioCopy v1.0b1
#
DISCID=7909420a
DTITLE=Michael Lovesmith - Rhymes Of Passion
DYEAR=1985
DGENRE=R&B
TTITLE0=I'm Good At It
TTITLE1=Cover Girl
TTITLE2=Break The Ice
TTITLE3=You Ain't Been Loved Right
TTITLE4=Love In The Combat Zone
TTITLE5=Tempory Insanity
TTITLE6=Haunted Heart
TTITLE7=Ain't Nothin' Like It
TTITLE8=We Both Will Have To Bend
TTITLE9=Raider Of The Night
EXTD=
EXTT0=
EXTT1=
EXTT2=
EXTT3=
EXTT4=
EXTT5=
EXTT6=
EXTT7=
EXTT8=
EXTT9=
PLAYORDER=
